<?xml version="1.0"?>
<svg xmlns="http://www.w3.org/2000/svg" width="512" height="512" viewBox="0 0 512 512"><g><path d="M408,24h-8V16a8,8,0,0,0-8-8H344a8,8,0,0,0-8,8v8H104A32.042,32.042,0,0,0,72,56V472a32.042,32.042,0,0,0,32,32H408a32.042,32.042,0,0,0,32-32V56A32.042,32.042,0,0,0,408,24Zm-56,0h32V97.05l-11.56-7.71a8.026,8.026,0,0,0-8.88,0L352,97.05ZM120,488H104a16.021,16.021,0,0,1-16-16V56a16.021,16.021,0,0,1,16-16h16Zm304-16a16.021,16.021,0,0,1-16,16H136V40H336v72a8.009,8.009,0,0,0,12.44,6.66L368,105.62l19.56,13.04A8.026,8.026,0,0,0,392,120a8.015,8.015,0,0,0,8-8V40h8a16.021,16.021,0,0,1,16,16Z"/><path d="M265.6,316.8a8,8,0,0,0,12.8,0l48-64A8,8,0,0,0,320,240H304V200a8,8,0,0,0-8-8H248a8,8,0,0,0-8,8v40H224a8,8,0,0,0-6.4,12.8ZM248,256a8,8,0,0,0,8-8V208h32v40a8,8,0,0,0,8,8h8l-32,42.667L240,256Z"/><path d="M336,304a8,8,0,0,0-8,8v16H216V312a8,8,0,0,0-16,0v24a8,8,0,0,0,8,8H336a8,8,0,0,0,8-8V312A8,8,0,0,0,336,304Z"/><path d="M368,456H280a8,8,0,0,0,0,16h88a8,8,0,0,0,0-16Z"/><path d="M400,456h-8a8,8,0,0,0,0,16h8a8,8,0,0,0,0-16Z"/><path d="M344,160H200a32.036,32.036,0,0,0-32,32V336a32.036,32.036,0,0,0,32,32H344a32.036,32.036,0,0,0,32-32V192A32.036,32.036,0,0,0,344,160Zm16,176a16.019,16.019,0,0,1-16,16H200a16.019,16.019,0,0,1-16-16V192a16.019,16.019,0,0,1,16-16H344a16.019,16.019,0,0,1,16,16Z"/></g></svg>
